<svg viewBox="0 0 330 200" xmlns="http://www.w3.org/2000/svg"><g><g><g><g><g><line x1="30.760000228881836" y1="176.0999994277954" x2="25.760000228881836" y2="176.0999994277954" style="visibility: inherit;" fill="rgb(0, 0, 0)" stroke="rgb(204, 204, 204)" stroke-width="1px"></line><line x1="30.760000228881836" y1="154.08749949932098" x2="25.760000228881836" y2="154.08749949932098" style="visibility: inherit;" fill="rgb(0, 0, 0)" stroke="rgb(204, 204, 204)" stroke-width="1px"></line><line x1="30.760000228881836" y1="132.07499957084656" x2="25.760000228881836" y2="132.07499957084656" style="visibility: inherit;" fill="rgb(0, 0, 0)" stroke="rgb(204, 204, 204)" stroke-width="1px"></line><line x1="30.760000228881836" y1="110.06249964237213" x2="25.760000228881836" y2="110.06249964237213" style="visibility: inherit;" fill="rgb(0, 0, 0)" stroke="rgb(204, 204, 204)" stroke-width="1px"></line><line x1="30.760000228881836" y1="88.0499997138977" x2="25.760000228881836" y2="88.0499997138977" style="visibility: inherit;" fill="rgb(0, 0, 0)" stroke="rgb(204, 204, 204)" stroke-width="1px"></line><line x1="30.760000228881836" y1="66.03749978542328" x2="25.760000228881836" y2="66.03749978542328" style="visibility: inherit;" fill="rgb(0, 0, 0)" stroke="rgb(204, 204, 204)" stroke-width="1px"></line><line x1="30.760000228881836" y1="44.02499985694885" x2="25.760000228881836" y2="44.02499985694885" style="visibility: inherit;" fill="rgb(0, 0, 0)" stroke="rgb(204, 204, 204)" stroke-width="1px"></line><line x1="30.760000228881836" y1="22.012499928474426" x2="25.760000228881836" y2="22.012499928474426" style="visibility: inherit;" fill="rgb(0, 0, 0)" stroke="rgb(204, 204, 204)" stroke-width="1px"></line><line x1="30.760000228881836" y1="0" x2="25.760000228881836" y2="0" style="visibility: inherit;" fill="rgb(0, 0, 0)" stroke="rgb(204, 204, 204)" stroke-width="1px"></line></g><g transform="translate(20.760000228881836, 0)"><text style="text-anchor: end; visibility: hidden; font-family: Roboto, sans-serif; font-size: 12px; font-weight: 200;" x="0" y="176.0999994277954" dx="0em" dy="0.3em" fill="rgb(50, 49, 63)" stroke="none" stroke-width="1px">46</text><text style="text-anchor: end; visibility: inherit; font-family: Roboto, sans-serif; font-size: 12px; font-weight: 200;" x="0" y="154.08749949932098" dx="0em" dy="0.3em" fill="rgb(50, 49, 63)" stroke="none" stroke-width="1px">48</text><text style="text-anchor: end; visibility: hidden; font-family: Roboto, sans-serif; font-size: 12px; font-weight: 200;" x="0" y="132.07499957084656" dx="0em" dy="0.3em" fill="rgb(50, 49, 63)" stroke="none" stroke-width="1px">50</text><text style="text-anchor: end; visibility: inherit; font-family: Roboto, sans-serif; font-size: 12px; font-weight: 200;" x="0" y="110.06249964237213" dx="0em" dy="0.3em" fill="rgb(50, 49, 63)" stroke="none" stroke-width="1px">52</text><text style="text-anchor: end; visibility: hidden; font-family: Roboto, sans-serif; font-size: 12px; font-weight: 200;" x="0" y="88.0499997138977" dx="0em" dy="0.3em" fill="rgb(50, 49, 63)" stroke="none" stroke-width="1px">54</text><text style="text-anchor: end; visibility: inherit; font-family: Roboto, sans-serif; font-size: 12px; font-weight: 200;" x="0" y="66.03749978542328" dx="0em" dy="0.3em" fill="rgb(50, 49, 63)" stroke="none" stroke-width="1px">56</text><text style="text-anchor: end; visibility: hidden; font-family: Roboto, sans-serif; font-size: 12px; font-weight: 200;" x="0" y="44.02499985694885" dx="0em" dy="0.3em" fill="rgb(50, 49, 63)" stroke="none" stroke-width="1px">58</text><text style="text-anchor: end; visibility: inherit; font-family: Roboto, sans-serif; font-size: 12px; font-weight: 200;" x="0" y="22.012499928474426" dx="0em" dy="0.3em" fill="rgb(50, 49, 63)" stroke="none" stroke-width="1px">60</text><text style="text-anchor: end; visibility: hidden; font-family: Roboto, sans-serif; font-size: 12px; font-weight: 200;" x="0" y="0" dx="0em" dy="0.3em" fill="rgb(50, 49, 63)" stroke="none" stroke-width="1px">62</text></g><line x1="30.760000228881836" y1="0" x2="30.760000228881836" y2="176.0999994277954" fill="rgb(0, 0, 0)" stroke="rgb(204, 204, 204)" stroke-width="1px"></line></g></g><g transform="translate(30, 0)" clip-path="url(#clip_0)"><clipPath id="clip_0"><rect width="299" height="176"></rect></clipPath><g><g><g><line x1="0" y1="0" x2="0" y2="176.0999994277954" fill="rgb(0, 0, 0)" stroke="rgb(60, 60, 60)" stroke-width="1px" opacity="0.25"></line><line x1="24.936666647593178" y1="0" x2="24.936666647593178" y2="176.0999994277954" fill="rgb(0, 0, 0)" stroke="rgb(60, 60, 60)" stroke-width="1px" opacity="0.25"></line><line x1="49.873333295186356" y1="0" x2="49.873333295186356" y2="176.0999994277954" fill="rgb(0, 0, 0)" stroke="rgb(60, 60, 60)" stroke-width="1px" opacity="0.25"></line><line x1="74.80999994277954" y1="0" x2="74.80999994277954" y2="176.0999994277954" fill="rgb(0, 0, 0)" stroke="rgb(60, 60, 60)" stroke-width="1px" opacity="0.25"></line><line x1="99.74666659037271" y1="0" x2="99.74666659037271" y2="176.0999994277954" fill="rgb(0, 0, 0)" stroke="rgb(60, 60, 60)" stroke-width="1px" opacity="0.25"></line><line x1="124.68333323796591" y1="0" x2="124.68333323796591" y2="176.0999994277954" fill="rgb(0, 0, 0)" stroke="rgb(60, 60, 60)" stroke-width="1px" opacity="0.25"></line><line x1="149.61999988555908" y1="0" x2="149.61999988555908" y2="176.0999994277954" fill="rgb(0, 0, 0)" stroke="rgb(60, 60, 60)" stroke-width="1px" opacity="0.25"></line><line x1="174.55666653315228" y1="0" x2="174.55666653315228" y2="176.0999994277954" fill="rgb(0, 0, 0)" stroke="rgb(60, 60, 60)" stroke-width="1px" opacity="0.25"></line><line x1="199.49333318074542" y1="0" x2="199.49333318074542" y2="176.0999994277954" fill="rgb(0, 0, 0)" stroke="rgb(60, 60, 60)" stroke-width="1px" opacity="0.25"></line><line x1="224.42999982833862" y1="0" x2="224.42999982833862" y2="176.0999994277954" fill="rgb(0, 0, 0)" stroke="rgb(60, 60, 60)" stroke-width="1px" opacity="0.25"></line><line x1="249.36666647593182" y1="0" x2="249.36666647593182" y2="176.0999994277954" fill="rgb(0, 0, 0)" stroke="rgb(60, 60, 60)" stroke-width="1px" opacity="0.25"></line><line x1="274.30333312352496" y1="0" x2="274.30333312352496" y2="176.0999994277954" fill="rgb(0, 0, 0)" stroke="rgb(60, 60, 60)" stroke-width="1px" opacity="0.25"></line><line x1="299.23999977111816" y1="0" x2="299.23999977111816" y2="176.0999994277954" fill="rgb(0, 0, 0)" stroke="rgb(60, 60, 60)" stroke-width="1px" opacity="0.25"></line></g><g><line x1="0" y1="176.0999994277954" x2="299.23999977111816" y2="176.0999994277954" fill="rgb(0, 0, 0)" stroke="rgb(60, 60, 60)" stroke-width="1px" opacity="0.25"></line><line x1="0" y1="154.08749949932098" x2="299.23999977111816" y2="154.08749949932098" fill="rgb(0, 0, 0)" stroke="rgb(60, 60, 60)" stroke-width="1px" opacity="0.25"></line><line x1="0" y1="132.07499957084656" x2="299.23999977111816" y2="132.07499957084656" fill="rgb(0, 0, 0)" stroke="rgb(60, 60, 60)" stroke-width="1px" opacity="0.25"></line><line x1="0" y1="110.06249964237213" x2="299.23999977111816" y2="110.06249964237213" fill="rgb(0, 0, 0)" stroke="rgb(60, 60, 60)" stroke-width="1px" opacity="0.25"></line><line x1="0" y1="88.0499997138977" x2="299.23999977111816" y2="88.0499997138977" fill="rgb(0, 0, 0)" stroke="rgb(60, 60, 60)" stroke-width="1px" opacity="0.25"></line><line x1="0" y1="66.03749978542328" x2="299.23999977111816" y2="66.03749978542328" fill="rgb(0, 0, 0)" stroke="rgb(60, 60, 60)" stroke-width="1px" opacity="0.25"></line><line x1="0" y1="44.02499985694885" x2="299.23999977111816" y2="44.02499985694885" fill="rgb(0, 0, 0)" stroke="rgb(60, 60, 60)" stroke-width="1px" opacity="0.25"></line><line x1="0" y1="22.012499928474426" x2="299.23999977111816" y2="22.012499928474426" fill="rgb(0, 0, 0)" stroke="rgb(60, 60, 60)" stroke-width="1px" opacity="0.25"></line><line x1="0" y1="0" x2="299.23999977111816" y2="0" fill="rgb(0, 0, 0)" stroke="rgb(60, 60, 60)" stroke-width="1px" opacity="0.25"></line></g></g></g><g><g><line x1="0" y1="682.3874977827072" x2="299.23999977111816" y2="682.3874977827072" fill="rgb(0, 0, 0)" stroke="rgb(153, 153, 153)" stroke-width="1.5px"></line></g></g><g><g><line x1="24.936666647593178" y1="0" x2="24.936666647593178" y2="176.0999994277954" fill="rgb(0, 0, 0)" stroke="rgb(153, 153, 153)" stroke-width="1.5px"></line></g></g><g><g><g><g><g><path style="fill: none;" stroke="rgb(255, 112, 67)" stroke-width="2px" d="M27.430333312352495,177.9343884170055L29.92399997711182,163.60331628210844L32.417666641871136,170.91508777950494L34.91133330663045,163.60331628210852L37.40499997138977,149.92864734072143L39.89866663614909,152.05842448745912L42.392333300908405,153.27086445234463L44.88599996566772,144.64768215008755L47.37966663042704,139.5674116971689L49.873333295186356,145.7798806428357L52.36699995994567,121.8674189686053L54.86066662470499,107.57558546030823L57.35433328946432,126.57203115311161L59.84799995422364,101.23774060459456L62.341666618982956,86.04987817564052L64.83533328374227,67.76727472762825L67.32899994850159,102.66814158792174L69.8226666132609,105.25927856472131L72.31633327802022,125.15864892681594L74.80999994277954,109.58086409746977L77.30366660753887,81.89041656011723L79.79733327229818,56.104529917118754L82.2909999370575,40.633215147904686L84.78466660181681,77.21010223232064L87.27833326657614,89.98422811280929L89.77199993133544,79.30489356843778L92.26566659609477,82.06918326016155L94.75933326085408,74.55588025996663L97.25299992561341,60.87602866116535L99.74666659037271,34.32436133397064L102.24033325513204,64.25275122642336L104.73399991989135,73.03789572490899L107.22766658465068,59.96524235631665L109.72133324940998,79.63727643362613L112.21499991416931,63.92487113568448L114.70866657892864,63.669297596520174L117.20233324368795,81.85970912669544L119.69599990844728,65.25833095998925L122.18966657320658,46.125617912649496L124.68333323796591,52.9897456745109L127.17699990272521,47.93635294626965L129.67066656748455,44.90431731191882L132.16433323224385,52.256965307019904L134.65799989700318,75.01230964436341L137.15166656176248,61.149891330793295L139.6453332265218,71.17617908897633L142.13899989128112,68.02008237101333L144.63266655604045,66.12642434031112L147.12633322079975,46.646473983206235L149.61999988555908,53.30225930772309L152.11366655031838,48.123861130224945L154.60733321507774,54.1886915958982L157.10099987983705,30.311964964649746L159.59466654459635,43.501553896549375L162.08833320935565,78.9309321662905L164.581999874115,81.8448035896504L167.07566653887432,74.4212570715342L169.56933320363362,60.79525978853479L172.06299986839292,61.79153079086651L174.55666653315228,62.38929339226558L177.05033319791158,71.91982032523461L179.5439998626709,68.46626711288634L182.0376665274302,48.05037964701354L184.53133319218955,63.31647207808328L187.02499985694885,72.4761275367251L189.51866652170816,50.45629590131696L192.01233318646752,55.5881524585358L194.50599985122682,67.83913576499654L196.99966651598612,66.01785637674348L199.49333318074542,64.92508874379165L201.98699984550478,73.44129753614997L204.4806665102641,69.37915343943564L206.9743331750234,48.59811144294337L209.4679998397827,45.301372411382246L211.96166650454205,34.151442826111364L214.45533316930135,27.46148507494885L216.94899983406066,41.791265962714945L219.44266649881996,50.38913449537459L221.93633316357932,73.89161115343389L224.42999982833862,78.82121098193538L226.92366649309793,118.46648195596346L229.41733315785729,87.22239471919424L231.9109998226166,77.64781174926212L234.4046664873759,71.90306196730288L236.8983331521352,50.112456559663755L239.39199981689455,64.5537182256733L241.88566648165386,73.21847522527904L244.37933314641316,60.07359068078357L246.87299981117246,70.53039869834514L249.36666647593182,76.80448350888209L251.86033314069113,80.56893439520432L254.35399980545043,73.65573555486816L256.84766647020973,69.5078162506665L259.3413331349691,76.19093404027493L261.8349997997284,71.0289353419106L264.3286664644877,58.759866750762455L266.82233312924706,51.39842559607357L269.31599979400636,83.66905518598277L271.80966645876566,84.68767740146467L274.30333312352496,66.95511198649497" fill="none"></path></g></g></g></g><g opacity="0.2"><g><g><g><path style="fill: none;" stroke="rgb(255, 112, 67)" stroke-width="2px" d="M27.430333312352495,177.9343884170055L29.92399997711182,155.0046730011702L32.417666641871136,177.9343884170055L34.91133330663045,155.0046730011702L37.40499997138977,132.07499957084656L39.89866663614909,155.0046730011702L42.392333300908405,155.0046730011702L44.88599996566772,132.07499957084656L47.37966663042704,132.07499957084656L49.873333295186356,155.0046730011702L52.36699995994567,86.21561072468762L54.86066662470499,86.21561072468762L57.35433328946432,155.0046730011702L59.84799995422364,63.285937294363976L62.341666618982956,63.285937294363976L64.83533328374227,40.35626386404033L67.32899994850159,155.0046730011702L69.8226666132609,109.14532614052291L72.31633327802022,155.0046730011702L74.80999994277954,86.21561072468762L77.30366660753887,40.35626386404033L79.79733327229818,17.42654844820504L82.2909999370575,17.42654844820504L84.78466660181681,132.07499957084656L87.27833326657614,109.14532614052291L89.77199993133544,63.285937294363976L92.26566659609477,86.21561072468762L94.75933326085408,63.285937294363976L97.25299992561341,40.35626386404033L99.74666659037271,-5.503124982118607L102.24033325513204,109.14532614052291L104.73399991989135,86.21561072468762L107.22766658465068,40.35626386404033L109.72133324940998,109.14532614052291L112.21499991416931,40.35626386404033L114.70866657892864,63.285937294363976L117.20233324368795,109.14532614052291L119.69599990844728,40.35626386404033L122.18966657320658,17.42654844820504L124.68333323796591,63.285937294363976L127.17699990272521,40.35626386404033L129.67066656748455,40.35626386404033L132.16433323224385,63.285937294363976L134.65799989700318,109.14532614052291L137.15166656176248,40.35626386404033L139.6453332265218,86.21561072468762L142.13899989128112,63.285937294363976L144.63266655604045,63.285937294363976L147.12633322079975,17.42654844820504L149.61999988555908,63.285937294363976L152.11366655031838,40.35626386404033L154.60733321507774,63.285937294363976L157.10099987983705,-5.503124982118607L159.59466654459635,63.285937294363976L162.08833320935565,132.07499957084656L164.581999874115,86.21561072468762L167.07566653887432,63.285937294363976L169.56933320363362,40.35626386404033L172.06299986839292,63.285937294363976L174.55666653315228,63.285937294363976L177.05033319791158,86.21561072468762L179.5439998626709,63.285937294363976L182.0376665274302,17.42654844820504L184.53133319218955,86.21561072468762L187.02499985694885,86.21561072468762L189.51866652170816,17.42654844820504L192.01233318646752,63.285937294363976L194.50599985122682,86.21561072468762L196.99966651598612,63.285937294363976L199.49333318074542,63.285937294363976L201.98699984550478,86.21561072468762L204.4806665102641,63.285937294363976L206.9743331750234,17.42654844820504L209.4679998397827,40.35626386404033L211.96166650454205,17.42654844820504L214.45533316930135,17.42654844820504L216.94899983406066,63.285937294363976L219.44266649881996,63.285937294363976L221.93633316357932,109.14532614052291L224.42999982833862,86.21561072468762L226.92366649309793,177.9343884170055L229.41733315785729,40.35626386404033L231.9109998226166,63.285937294363976L234.4046664873759,63.285937294363976L236.8983331521352,17.42654844820504L239.39199981689455,86.21561072468762L241.88566648165386,86.21561072468762L244.37933314641316,40.35626386404033L246.87299981117246,86.21561072468762L249.36666647593182,86.21561072468762L251.86033314069113,86.21561072468762L254.35399980545043,63.285937294363976L256.84766647020973,63.285937294363976L259.3413331349691,86.21561072468762L261.8349997997284,63.285937294363976L264.3286664644877,40.35626386404033L266.82233312924706,40.35626386404033L269.31599979400636,132.07499957084656L271.80966645876566,86.21561072468762L274.30333312352496,40.35626386404033" fill="none"></path></g></g></g></g></g></g><g transform="translate(30, 176)" clip-path="url(#clip_1)"><clipPath id="clip_1"><rect width="299" height="23"></rect></clipPath><g><g><line x1="0" y1="0" x2="0" y2="5" style="visibility: inherit;" fill="rgb(0, 0, 0)" stroke="rgb(204, 204, 204)" stroke-width="1px"></line><line x1="24.936666647593178" y1="0" x2="24.936666647593178" y2="5" style="visibility: inherit;" fill="rgb(0, 0, 0)" stroke="rgb(204, 204, 204)" stroke-width="1px"></line><line x1="49.873333295186356" y1="0" x2="49.873333295186356" y2="5" style="visibility: inherit;" fill="rgb(0, 0, 0)" stroke="rgb(204, 204, 204)" stroke-width="1px"></line><line x1="74.80999994277954" y1="0" x2="74.80999994277954" y2="5" style="visibility: inherit;" fill="rgb(0, 0, 0)" stroke="rgb(204, 204, 204)" stroke-width="1px"></line><line x1="99.74666659037271" y1="0" x2="99.74666659037271" y2="5" style="visibility: inherit;" fill="rgb(0, 0, 0)" stroke="rgb(204, 204, 204)" stroke-width="1px"></line><line x1="124.68333323796591" y1="0" x2="124.68333323796591" y2="5" style="visibility: inherit;" fill="rgb(0, 0, 0)" stroke="rgb(204, 204, 204)" stroke-width="1px"></line><line x1="149.61999988555908" y1="0" x2="149.61999988555908" y2="5" style="visibility: inherit;" fill="rgb(0, 0, 0)" stroke="rgb(204, 204, 204)" stroke-width="1px"></line><line x1="174.55666653315228" y1="0" x2="174.55666653315228" y2="5" style="visibility: inherit;" fill="rgb(0, 0, 0)" stroke="rgb(204, 204, 204)" stroke-width="1px"></line><line x1="199.49333318074542" y1="0" x2="199.49333318074542" y2="5" style="visibility: inherit;" fill="rgb(0, 0, 0)" stroke="rgb(204, 204, 204)" stroke-width="1px"></line><line x1="224.42999982833862" y1="0" x2="224.42999982833862" y2="5" style="visibility: inherit;" fill="rgb(0, 0, 0)" stroke="rgb(204, 204, 204)" stroke-width="1px"></line><line x1="249.36666647593182" y1="0" x2="249.36666647593182" y2="5" style="visibility: inherit;" fill="rgb(0, 0, 0)" stroke="rgb(204, 204, 204)" stroke-width="1px"></line><line x1="274.30333312352496" y1="0" x2="274.30333312352496" y2="5" style="visibility: inherit;" fill="rgb(0, 0, 0)" stroke="rgb(204, 204, 204)" stroke-width="1px"></line><line x1="299.23999977111816" y1="0" x2="299.23999977111816" y2="5" style="visibility: inherit;" fill="rgb(0, 0, 0)" stroke="rgb(204, 204, 204)" stroke-width="1px"></line></g><g transform="translate(0, 8)"><text style="text-anchor: middle; visibility: hidden; font-family: Roboto, sans-serif; font-size: 12px; font-weight: 200;" x="0" y="0" dx="0em" dy="0.95em" fill="rgb(50, 49, 63)" stroke="none" stroke-width="1px">-10</text><text style="text-anchor: middle; visibility: inherit; font-family: Roboto, sans-serif; font-size: 12px; font-weight: 200;" x="24.936666647593178" y="0" dx="0em" dy="0.95em" fill="rgb(50, 49, 63)" stroke="none" stroke-width="1px">0</text><text style="text-anchor: middle; visibility: inherit; font-family: Roboto, sans-serif; font-size: 12px; font-weight: 200;" x="49.873333295186356" y="0" dx="0em" dy="0.95em" fill="rgb(50, 49, 63)" stroke="none" stroke-width="1px">10</text><text style="text-anchor: middle; visibility: inherit; font-family: Roboto, sans-serif; font-size: 12px; font-weight: 200;" x="74.80999994277954" y="0" dx="0em" dy="0.95em" fill="rgb(50, 49, 63)" stroke="none" stroke-width="1px">20</text><text style="text-anchor: middle; visibility: inherit; font-family: Roboto, sans-serif; font-size: 12px; font-weight: 200;" x="99.74666659037271" y="0" dx="0em" dy="0.95em" fill="rgb(50, 49, 63)" stroke="none" stroke-width="1px">30</text><text style="text-anchor: middle; visibility: inherit; font-family: Roboto, sans-serif; font-size: 12px; font-weight: 200;" x="124.68333323796591" y="0" dx="0em" dy="0.95em" fill="rgb(50, 49, 63)" stroke="none" stroke-width="1px">40</text><text style="text-anchor: middle; visibility: inherit; font-family: Roboto, sans-serif; font-size: 12px; font-weight: 200;" x="149.61999988555908" y="0" dx="0em" dy="0.95em" fill="rgb(50, 49, 63)" stroke="none" stroke-width="1px">50</text><text style="text-anchor: middle; visibility: inherit; font-family: Roboto, sans-serif; font-size: 12px; font-weight: 200;" x="174.55666653315228" y="0" dx="0em" dy="0.95em" fill="rgb(50, 49, 63)" stroke="none" stroke-width="1px">60</text><text style="text-anchor: middle; visibility: inherit; font-family: Roboto, sans-serif; font-size: 12px; font-weight: 200;" x="199.49333318074542" y="0" dx="0em" dy="0.95em" fill="rgb(50, 49, 63)" stroke="none" stroke-width="1px">70</text><text style="text-anchor: middle; visibility: inherit; font-family: Roboto, sans-serif; font-size: 12px; font-weight: 200;" x="224.42999982833862" y="0" dx="0em" dy="0.95em" fill="rgb(50, 49, 63)" stroke="none" stroke-width="1px">80</text><text style="text-anchor: middle; visibility: inherit; font-family: Roboto, sans-serif; font-size: 12px; font-weight: 200;" x="249.36666647593182" y="0" dx="0em" dy="0.95em" fill="rgb(50, 49, 63)" stroke="none" stroke-width="1px">90</text><text style="text-anchor: middle; visibility: inherit; font-family: Roboto, sans-serif; font-size: 12px; font-weight: 200;" x="274.30333312352496" y="0" dx="0em" dy="0.95em" fill="rgb(50, 49, 63)" stroke="none" stroke-width="1px">100</text><text style="text-anchor: middle; visibility: hidden; font-family: Roboto, sans-serif; font-size: 12px; font-weight: 200;" x="299.23999977111816" y="0" dx="0em" dy="0.95em" fill="rgb(50, 49, 63)" stroke="none" stroke-width="1px">110</text></g><line x1="0" y1="0" x2="299.23999977111816" y2="0" fill="rgb(0, 0, 0)" stroke="rgb(204, 204, 204)" stroke-width="1px"></line></g></g></g></g></svg>