<svg viewBox="0 0 330 200" xmlns="http://www.w3.org/2000/svg"><g><g><g><g><g><line x1="51.52000045776367" y1="176.0999994277954" x2="46.52000045776367" y2="176.0999994277954" style="visibility: inherit;" fill="rgb(0, 0, 0)" stroke="rgb(204, 204, 204)" stroke-width="1px"></line><line x1="51.52000045776367" y1="154.087499499321" x2="46.52000045776367" y2="154.087499499321" style="visibility: inherit;" fill="rgb(0, 0, 0)" stroke="rgb(204, 204, 204)" stroke-width="1px"></line><line x1="51.52000045776367" y1="132.07499957084656" x2="46.52000045776367" y2="132.07499957084656" style="visibility: inherit;" fill="rgb(0, 0, 0)" stroke="rgb(204, 204, 204)" stroke-width="1px"></line><line x1="51.52000045776367" y1="110.06249964237213" x2="46.52000045776367" y2="110.06249964237213" style="visibility: inherit;" fill="rgb(0, 0, 0)" stroke="rgb(204, 204, 204)" stroke-width="1px"></line><line x1="51.52000045776367" y1="88.04999971389769" x2="46.52000045776367" y2="88.04999971389769" style="visibility: inherit;" fill="rgb(0, 0, 0)" stroke="rgb(204, 204, 204)" stroke-width="1px"></line><line x1="51.52000045776367" y1="66.03749978542334" x2="46.52000045776367" y2="66.03749978542334" style="visibility: inherit;" fill="rgb(0, 0, 0)" stroke="rgb(204, 204, 204)" stroke-width="1px"></line><line x1="51.52000045776367" y1="44.024999856948895" x2="46.52000045776367" y2="44.024999856948895" style="visibility: inherit;" fill="rgb(0, 0, 0)" stroke="rgb(204, 204, 204)" stroke-width="1px"></line><line x1="51.52000045776367" y1="22.012499928474448" x2="46.52000045776367" y2="22.012499928474448" style="visibility: inherit;" fill="rgb(0, 0, 0)" stroke="rgb(204, 204, 204)" stroke-width="1px"></line><line x1="51.52000045776367" y1="0" x2="46.52000045776367" y2="0" style="visibility: inherit;" fill="rgb(0, 0, 0)" stroke="rgb(204, 204, 204)" stroke-width="1px"></line></g><g transform="translate(41.52000045776367, 0)"><text style="text-anchor: end; visibility: hidden; font-family: Roboto, sans-serif; font-size: 12px; font-weight: 200;" x="0" y="176.0999994277954" dx="0em" dy="0.3em" fill="rgb(50, 49, 63)" stroke="none" stroke-width="1px">0.9</text><text style="text-anchor: end; visibility: inherit; font-family: Roboto, sans-serif; font-size: 12px; font-weight: 200;" x="0" y="154.087499499321" dx="0em" dy="0.3em" fill="rgb(50, 49, 63)" stroke="none" stroke-width="1px">0.95</text><text style="text-anchor: end; visibility: hidden; font-family: Roboto, sans-serif; font-size: 12px; font-weight: 200;" x="0" y="132.07499957084656" dx="0em" dy="0.3em" fill="rgb(50, 49, 63)" stroke="none" stroke-width="1px">1</text><text style="text-anchor: end; visibility: inherit; font-family: Roboto, sans-serif; font-size: 12px; font-weight: 200;" x="0" y="110.06249964237213" dx="0em" dy="0.3em" fill="rgb(50, 49, 63)" stroke="none" stroke-width="1px">1.05</text><text style="text-anchor: end; visibility: hidden; font-family: Roboto, sans-serif; font-size: 12px; font-weight: 200;" x="0" y="88.04999971389769" dx="0em" dy="0.3em" fill="rgb(50, 49, 63)" stroke="none" stroke-width="1px">1.1</text><text style="text-anchor: end; visibility: inherit; font-family: Roboto, sans-serif; font-size: 12px; font-weight: 200;" x="0" y="66.03749978542334" dx="0em" dy="0.3em" fill="rgb(50, 49, 63)" stroke="none" stroke-width="1px">1.15</text><text style="text-anchor: end; visibility: hidden; font-family: Roboto, sans-serif; font-size: 12px; font-weight: 200;" x="0" y="44.024999856948895" dx="0em" dy="0.3em" fill="rgb(50, 49, 63)" stroke="none" stroke-width="1px">1.2</text><text style="text-anchor: end; visibility: inherit; font-family: Roboto, sans-serif; font-size: 12px; font-weight: 200;" x="0" y="22.012499928474448" dx="0em" dy="0.3em" fill="rgb(50, 49, 63)" stroke="none" stroke-width="1px">1.25</text><text style="text-anchor: end; visibility: hidden; font-family: Roboto, sans-serif; font-size: 12px; font-weight: 200;" x="0" y="0" dx="0em" dy="0.3em" fill="rgb(50, 49, 63)" stroke="none" stroke-width="1px">1.3</text></g><line x1="51.52000045776367" y1="0" x2="51.52000045776367" y2="176.0999994277954" fill="rgb(0, 0, 0)" stroke="rgb(204, 204, 204)" stroke-width="1px"></line></g></g><g transform="translate(51, 0)" clip-path="url(#clip_0)"><clipPath id="clip_0"><rect width="278" height="176"></rect></clipPath><g><g><g><line x1="0" y1="0" x2="0" y2="176.0999994277954" fill="rgb(0, 0, 0)" stroke="rgb(60, 60, 60)" stroke-width="1px" opacity="0.25"></line><line x1="23.20666662851969" y1="0" x2="23.20666662851969" y2="176.0999994277954" fill="rgb(0, 0, 0)" stroke="rgb(60, 60, 60)" stroke-width="1px" opacity="0.25"></line><line x1="46.41333325703938" y1="0" x2="46.41333325703938" y2="176.0999994277954" fill="rgb(0, 0, 0)" stroke="rgb(60, 60, 60)" stroke-width="1px" opacity="0.25"></line><line x1="69.61999988555908" y1="0" x2="69.61999988555908" y2="176.0999994277954" fill="rgb(0, 0, 0)" stroke="rgb(60, 60, 60)" stroke-width="1px" opacity="0.25"></line><line x1="92.82666651407877" y1="0" x2="92.82666651407877" y2="176.0999994277954" fill="rgb(0, 0, 0)" stroke="rgb(60, 60, 60)" stroke-width="1px" opacity="0.25"></line><line x1="116.03333314259848" y1="0" x2="116.03333314259848" y2="176.0999994277954" fill="rgb(0, 0, 0)" stroke="rgb(60, 60, 60)" stroke-width="1px" opacity="0.25"></line><line x1="139.23999977111816" y1="0" x2="139.23999977111816" y2="176.0999994277954" fill="rgb(0, 0, 0)" stroke="rgb(60, 60, 60)" stroke-width="1px" opacity="0.25"></line><line x1="162.44666639963788" y1="0" x2="162.44666639963788" y2="176.0999994277954" fill="rgb(0, 0, 0)" stroke="rgb(60, 60, 60)" stroke-width="1px" opacity="0.25"></line><line x1="185.65333302815753" y1="0" x2="185.65333302815753" y2="176.0999994277954" fill="rgb(0, 0, 0)" stroke="rgb(60, 60, 60)" stroke-width="1px" opacity="0.25"></line><line x1="208.85999965667725" y1="0" x2="208.85999965667725" y2="176.0999994277954" fill="rgb(0, 0, 0)" stroke="rgb(60, 60, 60)" stroke-width="1px" opacity="0.25"></line><line x1="232.06666628519696" y1="0" x2="232.06666628519696" y2="176.0999994277954" fill="rgb(0, 0, 0)" stroke="rgb(60, 60, 60)" stroke-width="1px" opacity="0.25"></line><line x1="255.27333291371662" y1="0" x2="255.27333291371662" y2="176.0999994277954" fill="rgb(0, 0, 0)" stroke="rgb(60, 60, 60)" stroke-width="1px" opacity="0.25"></line><line x1="278.4799995422363" y1="0" x2="278.4799995422363" y2="176.0999994277954" fill="rgb(0, 0, 0)" stroke="rgb(60, 60, 60)" stroke-width="1px" opacity="0.25"></line></g><g><line x1="0" y1="176.0999994277954" x2="278.4799995422363" y2="176.0999994277954" fill="rgb(0, 0, 0)" stroke="rgb(60, 60, 60)" stroke-width="1px" opacity="0.25"></line><line x1="0" y1="154.087499499321" x2="278.4799995422363" y2="154.087499499321" fill="rgb(0, 0, 0)" stroke="rgb(60, 60, 60)" stroke-width="1px" opacity="0.25"></line><line x1="0" y1="132.07499957084656" x2="278.4799995422363" y2="132.07499957084656" fill="rgb(0, 0, 0)" stroke="rgb(60, 60, 60)" stroke-width="1px" opacity="0.25"></line><line x1="0" y1="110.06249964237213" x2="278.4799995422363" y2="110.06249964237213" fill="rgb(0, 0, 0)" stroke="rgb(60, 60, 60)" stroke-width="1px" opacity="0.25"></line><line x1="0" y1="88.04999971389769" x2="278.4799995422363" y2="88.04999971389769" fill="rgb(0, 0, 0)" stroke="rgb(60, 60, 60)" stroke-width="1px" opacity="0.25"></line><line x1="0" y1="66.03749978542334" x2="278.4799995422363" y2="66.03749978542334" fill="rgb(0, 0, 0)" stroke="rgb(60, 60, 60)" stroke-width="1px" opacity="0.25"></line><line x1="0" y1="44.024999856948895" x2="278.4799995422363" y2="44.024999856948895" fill="rgb(0, 0, 0)" stroke="rgb(60, 60, 60)" stroke-width="1px" opacity="0.25"></line><line x1="0" y1="22.012499928474448" x2="278.4799995422363" y2="22.012499928474448" fill="rgb(0, 0, 0)" stroke="rgb(60, 60, 60)" stroke-width="1px" opacity="0.25"></line><line x1="0" y1="0" x2="278.4799995422363" y2="0" fill="rgb(0, 0, 0)" stroke="rgb(60, 60, 60)" stroke-width="1px" opacity="0.25"></line></g></g></g><g><g><line x1="0" y1="572.3249981403351" x2="278.4799995422363" y2="572.3249981403351" fill="rgb(0, 0, 0)" stroke="rgb(153, 153, 153)" stroke-width="1.5px"></line></g></g><g><g><line x1="23.20666662851969" y1="0" x2="23.20666662851969" y2="176.0999994277954" fill="rgb(0, 0, 0)" stroke="rgb(153, 153, 153)" stroke-width="1.5px"></line></g></g><g><g><g><g><g><path style="fill: none;" stroke="rgb(0, 119, 187)" stroke-width="2px" d="M25.52733329137166,26.519277230162366L27.847999954223635,50.79031428284602L30.168666617075605,63.25195152217128L32.48933327992757,73.31162925630805L34.80999994277954,77.63557017213549L37.13066660563151,82.4002486697131L39.45133326848348,85.1044788181477L41.77199993133545,87.64192600648757L44.09266659418741,91.05963070989519L46.41333325703938,94.135249862213L48.73399991989135,94.30551582154243L51.05466658274332,94.02774371280935L53.3753332455953,96.36707692245886L55.69599990844727,98.94061416740635L58.01666657129924,100.17143011411524L60.33733323415121,98.97561279208901L62.65799989700317,101.19234167599747L64.97866655985514,102.47685286878742L67.29933322270712,104.2428872691156L69.61999988555908,104.50716238056604L71.94066654841106,107.5212815308351L74.26133321126302,110.30508896234811L76.581999874115,108.39097654947867L78.90266653696696,108.853006662972L81.22333319981894,108.75151293822053L83.5439998626709,112.06342375552425L85.86466652552288,112.49208383567546L88.18533318837483,113.64451622475437L90.5059998512268,116.13952650071049L92.82666651407877,116.94383396094483L95.14733317693074,116.94173751258481L97.4679998397827,118.2995927493214L99.78866650263468,119.63150437207639L102.10933316548665,121.12660316596465L104.42999982833862,122.35484413641841L106.7506664911906,125.89260023028332L109.07133315404256,128.0707797027406L111.39199981689454,128.17648188501084L113.7126664797465,127.8382907816026L116.03333314259848,125.86669445418724L118.35399980545044,125.41567008449056L120.67466646830242,127.31839348865684L122.99533313115437,131.78869137650688L125.31599979400634,132.0969987832861L127.63666645685831,130.2264355553143L129.95733311971028,129.5953910831811L132.27799978256226,130.959278593348L134.59866644541424,129.74411631756908L136.9193331082662,129.08553361892518L139.23999977111816,133.71825398285668L141.5606664339701,134.20952886732664L143.88133309682212,137.46634015532103L146.20199975967407,138.54414731460147L148.52266642252604,136.69300855872333L150.843333085378,134.32209868408768L153.16399974823,136.3138985371699L155.48466641108195,138.23261973494812L157.80533307393392,139.33916937284823L160.12599973678587,139.57401772297098L162.44666639963788,137.65486561875142L164.76733306248983,136.83730612307517L167.0879997253418,137.00722351657535L169.40866638819375,135.19742665826243L171.72933305104576,135.92079870738834L174.0499997138977,136.74822618096218L176.37066637674965,137.9223498157861L178.69133303960166,138.3468646050426L181.0119997024536,140.66569669114114L183.33266636530558,141.96850098063396L185.65333302815753,140.43834582308915L187.97399969100954,140.44498362250735L190.2946663538615,138.39847788451976L192.61533301671346,137.45677917822206L194.9359996795654,138.3087184905174L197.25666634241742,139.65588708935928L199.57733300526937,139.3321538909802L201.89799966812134,139.59486328792337L204.2186663309733,140.61543813965108L206.5393329938253,140.15448642379258L208.85999965667725,142.04147079477153L211.1806663195292,141.76336808125842L213.5013329823812,141.93445833274586L215.82199964523315,144.04336916476058L218.14266630808513,143.35921289821104L220.46333297093707,141.7104509397616L222.78399963378908,142.61947420624534L225.10466629664103,142.00509088887728L227.425332959493,142.1486631477496L229.74599962234495,144.50065960268606L232.06666628519696,147.0134523373907L234.3873329480489,145.64960238401113L236.70799961090088,147.41592050874874L239.02866627375283,148.28801515378964L241.34933293660484,147.5098890219165L243.6699995994568,146.1610341960785L245.99066626230874,148.22213427871947L248.31133292516074,150.37734285565955L250.6319995880127,151.85075378882024L252.95266625086467,151.8309047649246L255.27333291371662,149.40902698225835" fill="none"></path></g><g><path style="fill: none;" stroke="rgb(204, 51, 17)" stroke-width="2px" d="M27.847999954223635,-7.913637850051611L30.168666617075605,18.43356601809987L32.48933327992757,42.96187175051351L34.80999994277954,52.15630106751172L37.13066660563151,52.80638421905834L39.45133326848348,54.671950120194275L41.77199993133545,62.03560373058829L44.09266659418741,61.295924152416475L46.41333325703938,67.5953788170363L48.73399991989135,70.21379662472408L51.05466658274332,64.03048699863366L53.3753332455953,56.728680094661335L55.69599990844727,63.14130815298448L58.01666657129924,63.30991289364556L60.33733323415121,71.65800448691012L62.65799989700317,80.13102382228868L64.97866655985514,77.65829812212274L67.29933322270712,86.04657564400227L69.61999988555908,74.67218867185336L71.94066654841106,63.73073802414169L74.26133321126302,69.76818042868948L76.581999874115,67.15414381876562L78.90266653696696,52.65327549686062L81.22333319981894,52.3944714350998L83.5439998626709,69.75271978664935L85.86466652552288,76.70016785537904L88.18533318837483,82.49074338427096L90.5059998512268,92.50109938808515L92.82666651407877,91.37646876310176L95.14733317693074,81.76811715854956L97.4679998397827,76.12308062056323L99.78866650263468,80.85429393330259L102.10933316548665,81.1170216284263L104.42999982833862,87.68647576152247L106.7506664911906,91.49767819032529L109.07133315404256,84.69084157035911L111.39199981689454,69.05108820558476L113.7126664797465,48.23978758138441L116.03333314259848,59.841081958057764L118.35399980545044,76.46110836882298L120.67466646830242,70.69695443524637L122.99533313115437,64.18386915464846L125.31599979400634,61.989152819374205L127.63666645685831,70.84610525163897L129.95733311971028,63.15788857254439L132.27799978256226,57.501345695192164L134.59866644541424,44.01840648456933L136.9193331082662,45.69886045273341L139.23999977111816,28.187365633092817L141.5606664339701,55.872526429700166L143.88133309682212,49.15865588506478L146.20199975967407,57.296685194772195L148.52266642252604,63.68667768480688L150.843333085378,59.580814064698025L153.16399974823,61.220959800658115L155.48466641108195,53.53671850834352L157.80533307393392,59.78108692047602L160.12599973678587,68.04595781049991L162.44666639963788,66.49655923538529L164.76733306248983,69.20819755861042L167.0879997253418,57.14072423431864L169.40866638819375,67.93975616518605L171.72933305104576,66.1403671740893L174.0499997138977,65.85297939138577L176.37066637674965,69.29190951301153L178.69133303960166,51.08075791198942L181.0119997024536,56.21656910455588L183.33266636530558,32.9763519113492L185.65333302815753,45.61979875665325L187.97399969100954,11.854231482510537L190.2946663538615,32.42361794458784L192.61533301671346,38.917780665972664L194.9359996795654,54.72401448809428L197.25666634241742,67.29757354698131L199.57733300526937,83.40085439317326L201.89799966812134,83.04528975034071L204.2186663309733,85.08226942494616L206.5393329938253,74.01273685548747L208.85999965667725,65.81154945484285L211.1806663195292,49.49229542217922L213.5013329823812,38.54418910609716L215.82199964523315,29.311827436060526L218.14266630808513,23.654955965216324L220.46333297093707,52.07495566810587L222.78399963378908,64.61261029967805L225.10466629664103,59.02180524878292L227.425332959493,58.18794340251086L229.74599962234495,54.40671047288877L232.06666628519696,53.77091321946073L234.3873329480489,47.6189251543846L236.70799961090088,36.269029179938514L239.02866627375283,54.59159787223093L241.34933293660484,64.87470224508903L243.6699995994568,63.48049707664766L245.99066626230874,71.77550786667648L248.31133292516074,43.99476738111313L250.6319995880127,54.7851416031146L252.95266625086467,58.553168990586954L255.27333291371662,55.861059578282166" fill="none"></path></g></g></g></g><g opacity="0.2"><g><g><g><path style="fill: none;" stroke="rgb(0, 119, 187)" stroke-width="2px" d="M25.52733329137166,26.519277230162366L27.847999954223635,65.3529365144562L30.168666617075605,75.21512327192347L32.48933327992757,85.14181027165286L34.80999994277954,83.28090743183999L37.13066660563151,88.99151431612216L39.45133326848348,88.97157119809157L41.77199993133545,91.34154836658018L44.09266659418741,96.1000812924596L46.41333325703938,98.70218585844646L48.73399991989135,94.55937046081692L51.05466658274332,93.61259717325913L53.3753332455953,99.86843840811991L55.69599990844727,102.79587820745326L58.01666657129924,102.01620725623604L60.33733323415121,97.18273019207322L62.65799989700317,104.51649695648774L64.97866655985514,104.40329352071933L67.29933322270712,106.89166983204223L69.61999988555908,104.90355089194998L71.94066654841106,112.04229495478108L74.26133321126302,114.48070850724838L76.581999874115,105.51984572098496L78.90266653696696,109.54604636002506L81.22333319981894,108.59927307246727L83.5439998626709,117.031275857693L85.86466652552288,113.13507285907866L88.18533318837483,115.37316303911757L90.5059998512268,119.88203961638766L92.82666651407877,118.15029470676768L95.14733317693074,116.93859284074028L97.4679998397827,120.33637533425838L99.78866650263468,121.62937164720523L102.10933316548665,123.36925124970611L104.42999982833862,124.19720553931319L106.7506664911906,131.1992342798556L109.07133315404256,131.33804887772646L111.39199981689454,128.33503515743507L113.7126664797465,127.33100412837365L116.03333314259848,122.90929996965309L118.35399980545044,124.73913353084987L120.67466646830242,130.1724785926172L122.99533313115437,138.49413820505524L125.31599979400634,132.5594598933214L127.63666645685831,127.42059071384267L129.95733311971028,128.64882437507964L132.27799978256226,133.0051098584709L134.59866644541424,127.92137290396886L136.9193331082662,128.09765957098142L139.23999977111816,140.66733452866038L141.5606664339701,134.94644119402557L143.88133309682212,142.35155708728902L146.20199975967407,140.16085805351756L148.52266642252604,133.91630042491093L150.843333085378,130.7657338721379L153.16399974823,139.3015983167914L155.48466641108195,141.11070153161427L157.80533307393392,140.99899382969815L160.12599973678587,139.92629024815506L162.44666639963788,134.77613746242218L164.76733306248983,135.61096687956086L167.0879997253418,137.2620996068256L169.40866638819375,132.48273137079315L171.72933305104576,137.0058567810772L174.0499997138977,137.98936739132293L176.37066637674965,139.6835352680221L178.69133303960166,138.98363678892727L181.0119997024536,144.14394482028888L183.33266636530558,143.92270741487314L185.65333302815753,138.14311308677196L187.97399969100954,140.45494032163452L190.2946663538615,135.32871927753837L192.61533301671346,136.04423111877557L194.9359996795654,139.58662745896027L197.25666634241742,141.676639987622L199.57733300526937,138.8465540934117L201.89799966812134,139.988927383338L204.2186663309733,142.14630041724254L206.5393329938253,139.4630588500049L208.85999965667725,144.87194735123998L211.1806663195292,141.34621401098875L213.5013329823812,142.19109370997705L215.82199964523315,147.2067354127825L218.14266630808513,142.33297849838684L220.46333297093707,139.2373080020875L222.78399963378908,143.98300910597092L225.10466629664103,141.0835159128252L227.425332959493,142.36402153605815L229.74599962234495,148.02865428509085L232.06666628519696,150.78264143944756L234.3873329480489,143.60382745394182L236.70799961090088,150.06539769585507L239.02866627375283,149.59615712135096L241.34933293660484,146.34269982410692L243.6699995994568,144.13775195732148L245.99066626230874,151.31378440268085L248.31133292516074,153.6101557210697L250.6319995880127,154.06087018856118L252.95266625086467,151.80113122908116L255.27333291371662,145.77621030825887" fill="none"></path></g><g><path style="fill: none;" stroke="rgb(204, 51, 17)" stroke-width="2px" d="M27.847999954223635,-8.286134621398748L30.168666617075605,43.72688173152519L32.48933327992757,71.80715929183187L34.80999994277954,64.16054798378475L37.13066660563151,53.705683247581895L39.45133326848348,57.339739207873L41.77199993133545,72.77188138561719L44.09266659418741,60.20504044997417L46.41333325703938,76.9493348303525L48.73399991989135,74.11767447945557L51.05466658274332,54.78917185742838L53.3753332455953,45.79981140513703L55.69599990844727,72.7476872345327L58.01666657129924,63.562621816093746L60.33733323415121,84.1742541558316L62.65799989700317,92.8369673275376L64.97866655985514,73.94983739666124L67.29933322270712,98.62771405716904L69.61999988555908,57.61164787765332L71.94066654841106,47.31916210773115L74.26133321126302,78.82414537089723L76.581999874115,63.23314051347247L78.90266653696696,30.902144790612816L81.22333319981894,52.006267181927306L83.5439998626709,95.79001828897339L85.86466652552288,87.12132218185822L88.18533318837483,91.17659778771133L90.5059998512268,107.51662417285365L92.82666651407877,89.68952344719304L95.14733317693074,67.35559293795497L97.4679998397827,67.65552693675723L99.78866650263468,87.9511133375997L102.10933316548665,81.51111315229322L104.42999982833862,97.54065667883287L106.7506664911906,97.21448173525351L109.07133315404256,74.48058674572287L111.39199981689454,45.59145830360685L113.7126664797465,17.022836760998324L116.03333314259848,77.24302348429781L118.35399980545044,101.39114795164551L120.67466646830242,62.05072354181632L122.99533313115437,54.414241238453165L125.31599979400634,58.69707831741331L127.63666645685831,84.13153389773449L129.95733311971028,51.62556355510113L132.27799978256226,49.01653137969313L134.59866644541424,23.793997669391807L136.9193331082662,48.21954140492303L139.23999977111816,1.920123403985846L141.5606664339701,97.40026762427539L143.88133309682212,39.087850068160684L146.20199975967407,69.50372915929798L148.52266642252604,73.27166641984185L150.843333085378,53.42201863454144L153.16399974823,63.681178404596686L155.48466641108195,42.01035656987593L157.80533307393392,69.14763953867272L160.12599973678587,80.44326414553389L162.44666639963788,64.17246137271356L164.76733306248983,73.27565504344797L167.0879997253418,39.039514247881264L169.40866638819375,84.13830406148698L171.72933305104576,63.44128368744443L174.0499997138977,65.42189771733042L176.37066637674965,74.4503046954501L178.69133303960166,23.764030510456358L181.0119997024536,63.92028589340563L183.33266636530558,-1.8839738784608535L185.65333302815753,64.58496902460958L187.97399969100954,-38.79411942870367L190.2946663538615,63.27769763770399L192.61533301671346,48.65902474804991L194.9359996795654,78.43336522127665L197.25666634241742,86.15791213531175L199.57733300526937,107.55577566246109L201.89799966812134,82.51194278609184L204.2186663309733,88.13773893685442L206.5393329938253,57.40843800129945L208.85999965667725,53.50976835387606L211.1806663195292,25.01341437318367L213.5013329823812,22.122029631974065L215.82199964523315,15.46328493100568L218.14266630808513,15.169648758949924L220.46333297093707,94.70495522244028L222.78399963378908,83.4190922470362L225.10466629664103,50.635597672440234L227.425332959493,56.937150633102725L229.74599962234495,48.73486107845573L232.06666628519696,52.81721733931882L234.3873329480489,38.390943056770446L236.70799961090088,19.244185218269443L239.02866627375283,82.07545091066955L241.34933293660484,80.29935880437627L243.6699995994568,61.38918932398561L245.99066626230874,84.21802405171981L248.31133292516074,2.323656652768099L250.6319995880127,70.97070293611701L252.95266625086467,64.20521007179538L255.27333291371662,51.82289545982493" fill="none"></path></g></g></g></g></g></g><g transform="translate(51, 176)" clip-path="url(#clip_1)"><clipPath id="clip_1"><rect width="278" height="23"></rect></clipPath><g><g><line x1="0" y1="0" x2="0" y2="5" style="visibility: inherit;" fill="rgb(0, 0, 0)" stroke="rgb(204, 204, 204)" stroke-width="1px"></line><line x1="23.20666662851969" y1="0" x2="23.20666662851969" y2="5" style="visibility: inherit;" fill="rgb(0, 0, 0)" stroke="rgb(204, 204, 204)" stroke-width="1px"></line><line x1="46.41333325703938" y1="0" x2="46.41333325703938" y2="5" style="visibility: inherit;" fill="rgb(0, 0, 0)" stroke="rgb(204, 204, 204)" stroke-width="1px"></line><line x1="69.61999988555908" y1="0" x2="69.61999988555908" y2="5" style="visibility: inherit;" fill="rgb(0, 0, 0)" stroke="rgb(204, 204, 204)" stroke-width="1px"></line><line x1="92.82666651407877" y1="0" x2="92.82666651407877" y2="5" style="visibility: inherit;" fill="rgb(0, 0, 0)" stroke="rgb(204, 204, 204)" stroke-width="1px"></line><line x1="116.03333314259848" y1="0" x2="116.03333314259848" y2="5" style="visibility: inherit;" fill="rgb(0, 0, 0)" stroke="rgb(204, 204, 204)" stroke-width="1px"></line><line x1="139.23999977111816" y1="0" x2="139.23999977111816" y2="5" style="visibility: inherit;" fill="rgb(0, 0, 0)" stroke="rgb(204, 204, 204)" stroke-width="1px"></line><line x1="162.44666639963788" y1="0" x2="162.44666639963788" y2="5" style="visibility: inherit;" fill="rgb(0, 0, 0)" stroke="rgb(204, 204, 204)" stroke-width="1px"></line><line x1="185.65333302815753" y1="0" x2="185.65333302815753" y2="5" style="visibility: inherit;" fill="rgb(0, 0, 0)" stroke="rgb(204, 204, 204)" stroke-width="1px"></line><line x1="208.85999965667725" y1="0" x2="208.85999965667725" y2="5" style="visibility: inherit;" fill="rgb(0, 0, 0)" stroke="rgb(204, 204, 204)" stroke-width="1px"></line><line x1="232.06666628519696" y1="0" x2="232.06666628519696" y2="5" style="visibility: inherit;" fill="rgb(0, 0, 0)" stroke="rgb(204, 204, 204)" stroke-width="1px"></line><line x1="255.27333291371662" y1="0" x2="255.27333291371662" y2="5" style="visibility: inherit;" fill="rgb(0, 0, 0)" stroke="rgb(204, 204, 204)" stroke-width="1px"></line><line x1="278.4799995422363" y1="0" x2="278.4799995422363" y2="5" style="visibility: inherit;" fill="rgb(0, 0, 0)" stroke="rgb(204, 204, 204)" stroke-width="1px"></line></g><g transform="translate(0, 8)"><text style="text-anchor: middle; visibility: hidden; font-family: Roboto, sans-serif; font-size: 12px; font-weight: 200;" x="0" y="0" dx="0em" dy="0.95em" fill="rgb(50, 49, 63)" stroke="none" stroke-width="1px">-10</text><text style="text-anchor: middle; visibility: inherit; font-family: Roboto, sans-serif; font-size: 12px; font-weight: 200;" x="23.20666662851969" y="0" dx="0em" dy="0.95em" fill="rgb(50, 49, 63)" stroke="none" stroke-width="1px">0</text><text style="text-anchor: middle; visibility: inherit; font-family: Roboto, sans-serif; font-size: 12px; font-weight: 200;" x="46.41333325703938" y="0" dx="0em" dy="0.95em" fill="rgb(50, 49, 63)" stroke="none" stroke-width="1px">10</text><text style="text-anchor: middle; visibility: inherit; font-family: Roboto, sans-serif; font-size: 12px; font-weight: 200;" x="69.61999988555908" y="0" dx="0em" dy="0.95em" fill="rgb(50, 49, 63)" stroke="none" stroke-width="1px">20</text><text style="text-anchor: middle; visibility: inherit; font-family: Roboto, sans-serif; font-size: 12px; font-weight: 200;" x="92.82666651407877" y="0" dx="0em" dy="0.95em" fill="rgb(50, 49, 63)" stroke="none" stroke-width="1px">30</text><text style="text-anchor: middle; visibility: inherit; font-family: Roboto, sans-serif; font-size: 12px; font-weight: 200;" x="116.03333314259848" y="0" dx="0em" dy="0.95em" fill="rgb(50, 49, 63)" stroke="none" stroke-width="1px">40</text><text style="text-anchor: middle; visibility: inherit; font-family: Roboto, sans-serif; font-size: 12px; font-weight: 200;" x="139.23999977111816" y="0" dx="0em" dy="0.95em" fill="rgb(50, 49, 63)" stroke="none" stroke-width="1px">50</text><text style="text-anchor: middle; visibility: inherit; font-family: Roboto, sans-serif; font-size: 12px; font-weight: 200;" x="162.44666639963788" y="0" dx="0em" dy="0.95em" fill="rgb(50, 49, 63)" stroke="none" stroke-width="1px">60</text><text style="text-anchor: middle; visibility: inherit; font-family: Roboto, sans-serif; font-size: 12px; font-weight: 200;" x="185.65333302815753" y="0" dx="0em" dy="0.95em" fill="rgb(50, 49, 63)" stroke="none" stroke-width="1px">70</text><text style="text-anchor: middle; visibility: inherit; font-family: Roboto, sans-serif; font-size: 12px; font-weight: 200;" x="208.85999965667725" y="0" dx="0em" dy="0.95em" fill="rgb(50, 49, 63)" stroke="none" stroke-width="1px">80</text><text style="text-anchor: middle; visibility: inherit; font-family: Roboto, sans-serif; font-size: 12px; font-weight: 200;" x="232.06666628519696" y="0" dx="0em" dy="0.95em" fill="rgb(50, 49, 63)" stroke="none" stroke-width="1px">90</text><text style="text-anchor: middle; visibility: inherit; font-family: Roboto, sans-serif; font-size: 12px; font-weight: 200;" x="255.27333291371662" y="0" dx="0em" dy="0.95em" fill="rgb(50, 49, 63)" stroke="none" stroke-width="1px">100</text><text style="text-anchor: middle; visibility: hidden; font-family: Roboto, sans-serif; font-size: 12px; font-weight: 200;" x="278.4799995422363" y="0" dx="0em" dy="0.95em" fill="rgb(50, 49, 63)" stroke="none" stroke-width="1px">110</text></g><line x1="0" y1="0" x2="278.4799995422363" y2="0" fill="rgb(0, 0, 0)" stroke="rgb(204, 204, 204)" stroke-width="1px"></line></g></g></g></g></svg>